<?xml version="1.0" encoding="utf-8" standalone="no"?>
<!DOCTYPE svg PUBLIC "-//W3C//DTD SVG 1.1//EN"
  "http://www.w3.org/Graphics/SVG/1.1/DTD/svg11.dtd">
<svg xmlns:xlink="http://www.w3.org/1999/xlink" width="460.8pt" height="345.6pt" viewBox="0 0 460.8 345.6" xmlns="http://www.w3.org/2000/svg" version="1.1">
 <metadata>
  <rdf:RDF xmlns:dc="http://purl.org/dc/elements/1.1/" xmlns:cc="http://creativecommons.org/ns#" xmlns:rdf="http://www.w3.org/1999/02/22-rdf-syntax-ns#">
   <cc:Work>
    <dc:type rdf:resource="http://purl.org/dc/dcmitype/StillImage"/>
    <dc:date>2023-04-09T08:28:35.398608</dc:date>
    <dc:format>image/svg+xml</dc:format>
    <dc:creator>
     <cc:Agent>
      <dc:title>Matplotlib v3.6.2, https://matplotlib.org/</dc:title>
     </cc:Agent>
    </dc:creator>
   </cc:Work>
  </rdf:RDF>
 </metadata>
 <defs>
  <style type="text/css">*{stroke-linejoin: round; stroke-linecap: butt}</style>
 </defs>
 <g id="figure_1">
  <g id="patch_1">
   <path d="M 0 345.6 
L 460.8 345.6 
L 460.8 0 
L 0 0 
z
" style="fill: #ffffff"/>
  </g>
  <g id="axes_1">
   <g id="patch_2">
    <path d="M 268.255824 75.864218 
C 257.651336 72.263404 246.544712 70.358608 235.346414 70.220223 
C 224.148116 70.081838 212.997813 71.71159 202.307582 75.049251 
C 191.61735 78.386911 181.520522 83.39085 172.390241 89.876141 
C 163.25996 96.361431 155.210102 104.247186 148.538161 113.241975 
C 141.86622 122.236765 136.655412 132.228402 133.098309 142.847632 
C 129.541206 153.466862 127.682174 164.581237 127.589916 175.78001 
C 127.497658 186.978783 129.173325 198.122278 132.55499 208.798671 
C 135.936655 219.475065 140.982141 229.551195 147.504984 238.654686 
C 154.027827 247.758177 161.946672 255.775485 170.968867 262.41032 
C 179.991062 269.045155 190.004078 274.214763 200.637869 277.728095 
C 211.271661 281.241428 222.393599 283.054664 233.592657 283.100793 
C 244.791716 283.146922 255.928214 281.42537 266.590587 277.999757 
C 277.252961 274.574145 287.308224 269.487198 296.38477 262.926913 
C 305.461316 256.366628 313.445938 248.414827 320.043554 239.365379 
C 326.64117 230.315932 331.769491 220.281708 335.238993 209.633535 
C 338.708495 198.985362 340.475904 187.856049 340.475904 176.656896 
L 234.031104 176.656896 
L 268.255824 75.864218 
z
" style="fill: #004c00; opacity: 0.5; stroke: #004c00; stroke-linejoin: miter"/>
   </g>
   <g id="patch_3">
    <path d="M 326.27481 123.538215 
C 319.874641 112.423948 311.518139 102.557341 301.608971 94.415013 
C 291.699804 86.272685 280.400141 79.987889 268.255824 75.864218 
L 234.031104 176.656896 
L 326.27481 123.538215 
z
" style="fill: #4c4c00; opacity: 0.5; stroke: #4c4c00; stroke-linejoin: miter"/>
   </g>
   <g id="patch_4">
    <path d="M 338.215553 154.83727 
C 337.065696 149.346931 335.48364 143.956065 333.484172 138.715062 
C 331.484703 133.474058 329.074071 128.399298 326.27481 123.538215 
L 234.031104 176.656896 
L 338.215553 154.83727 
z
" style="fill: #4c3200; opacity: 0.5; stroke: #4c3200; stroke-linejoin: miter"/>
   </g>
   <g id="patch_5">
    <path d="M 340.416716 173.107673 
C 340.314305 170.037983 340.079082 166.974162 339.711706 163.924814 
C 339.344329 160.875466 338.845144 157.843447 338.215553 154.83727 
L 234.031104 176.656896 
L 340.416716 173.107673 
z
" style="fill: #4c1e00; opacity: 0.5; stroke: #4c1e00; stroke-linejoin: miter"/>
   </g>
   <g id="patch_6">
    <path d="M 340.475904 176.656885 
C 340.475904 176.065237 340.470971 175.473599 340.461106 174.882032 
C 340.451241 174.290466 340.436444 173.698993 340.416716 173.107673 
L 234.031104 176.656896 
L 340.475904 176.656885 
z
" style="fill: #4c0000; opacity: 0.5; stroke: #4c0000; stroke-linejoin: miter"/>
   </g>
   <g id="patch_7">
    <path d="M 270.38472 73.735322 
C 259.780232 70.134508 248.673608 68.229712 237.47531 68.091327 
C 226.277012 67.952942 215.126709 69.582694 204.436478 72.920355 
C 193.746246 76.258015 183.649418 81.261954 174.519137 87.747245 
C 165.388856 94.232535 157.338998 102.11829 150.667057 111.113079 
C 143.995116 120.107869 138.784308 130.099506 135.227205 140.718736 
C 131.670102 151.337966 129.81107 162.452341 129.718812 173.651114 
C 129.626554 184.849887 131.302221 195.993382 134.683886 206.669775 
C 138.065551 217.346169 143.111037 227.422299 149.63388 236.52579 
C 156.156723 245.629281 164.075568 253.646589 173.097763 260.281424 
C 182.119958 266.916259 192.132974 272.085867 202.766765 275.599199 
C 213.400557 279.112532 224.522495 280.925768 235.721553 280.971897 
C 246.920612 281.018026 258.05711 279.296474 268.719483 275.870861 
C 279.381857 272.445249 289.43712 267.358302 298.513666 260.798017 
C 307.590212 254.237732 315.574834 246.285931 322.17245 237.236483 
C 328.770066 228.187036 333.898387 218.152812 337.367889 207.504639 
C 340.837391 196.856466 342.6048 185.727153 342.6048 174.528 
L 236.16 174.528 
L 270.38472 73.735322 
z
" style="fill: #00ff00"/>
   </g>
   <g id="patch_8">
    <path d="M 328.403706 121.409319 
C 322.003537 110.295052 313.647035 100.428445 303.737867 92.286117 
C 293.8287 84.143789 282.529037 77.858993 270.38472 73.735322 
L 236.16 174.528 
L 328.403706 121.409319 
z
" style="fill: #ffff00"/>
   </g>
   <g id="patch_9">
    <path d="M 340.344449 152.708374 
C 339.194592 147.218035 337.612536 141.827169 335.613068 136.586166 
C 333.613599 131.345162 331.202967 126.270402 328.403706 121.409319 
L 236.16 174.528 
L 340.344449 152.708374 
z
" style="fill: #ffa500"/>
   </g>
   <g id="patch_10">
    <path d="M 342.545612 170.978777 
C 342.443201 167.909087 342.207978 164.845266 341.840602 161.795918 
C 341.473225 158.74657 340.97404 155.714551 340.344449 152.708374 
L 236.16 174.528 
L 342.545612 170.978777 
z
" style="fill: #ff6400"/>
   </g>
   <g id="patch_11">
    <path d="M 342.6048 174.527989 
C 342.6048 173.936341 342.599867 173.344703 342.590002 172.753136 
C 342.580137 172.16157 342.56534 171.570097 342.545612 170.978777 
L 236.16 174.528 
L 342.6048 174.527989 
z
" style="fill: #ff0000"/>
   </g>
   <g id="patch_12">
    <path d="M 261.82854 98.933491 
C 253.875174 96.232881 245.545206 94.804284 237.146482 94.700495 
C 228.747759 94.596706 220.385032 95.819021 212.367358 98.322266 
C 204.349685 100.825511 196.777064 104.578466 189.929353 109.442434 
C 183.081642 114.306402 177.044248 120.220717 172.040293 126.966809 
C 167.036337 133.712902 163.128231 141.206629 160.460404 149.171052 
C 157.792576 157.135475 156.398302 165.471256 156.329109 173.870336 
C 156.259915 182.269416 157.516666 190.627037 160.052914 198.634332 
C 162.589163 206.641626 166.373278 214.198725 171.26541 221.026343 
C 176.157542 227.853961 182.096676 233.866942 188.863322 238.843068 
C 195.629968 243.819194 203.13973 247.6964 211.115074 250.331399 
C 219.090418 252.966399 227.431872 254.326326 235.831165 254.360923 
C 244.230459 254.39552 252.582832 253.104355 260.579612 250.535146 
C 268.576393 247.965936 276.11784 244.150727 282.925249 239.230513 
C 289.732659 234.310299 295.721126 228.346448 300.669338 221.559362 
C 305.617549 214.772277 309.46379 207.246609 312.065917 199.260479 
C 314.668043 191.274349 315.9936 182.927365 315.9936 174.528 
L 236.16 174.528 
L 261.82854 98.933491 
z
" style="fill: #ffffff"/>
   </g>
   <g id="patch_13">
    <path d="M 315.9936 174.527993 
C 315.993598 157.851008 310.767944 141.585926 301.054588 128.029654 
C 291.341232 114.473382 277.619991 104.295567 261.82854 98.933491 
L 236.16 174.528 
L 315.9936 174.527993 
z
" style="fill: #d3d3d3"/>
   </g>
   <g id="matplotlib.axis_1"/>
   <g id="matplotlib.axis_2"/>
   <g id="text_1">
    <!-- 0 No damage -->
    <g transform="translate(85.17284 288.022133) rotate(-35.622396) scale(0.1 -0.1)">
     <defs>
      <path id="DejaVuSans-30" d="M 2034 4250 
Q 1547 4250 1301 3770 
Q 1056 3291 1056 2328 
Q 1056 1369 1301 889 
Q 1547 409 2034 409 
Q 2525 409 2770 889 
Q 3016 1369 3016 2328 
Q 3016 3291 2770 3770 
Q 2525 4250 2034 4250 
z
M 2034 4750 
Q 2819 4750 3233 4129 
Q 3647 3509 3647 2328 
Q 3647 1150 3233 529 
Q 2819 -91 2034 -91 
Q 1250 -91 836 529 
Q 422 1150 422 2328 
Q 422 3509 836 4129 
Q 1250 4750 2034 4750 
z
" transform="scale(0.015625)"/>
      <path id="DejaVuSans-20" transform="scale(0.015625)"/>
      <path id="DejaVuSans-4e" d="M 628 4666 
L 1478 4666 
L 3547 763 
L 3547 4666 
L 4159 4666 
L 4159 0 
L 3309 0 
L 1241 3903 
L 1241 0 
L 628 0 
L 628 4666 
z
" transform="scale(0.015625)"/>
      <path id="DejaVuSans-6f" d="M 1959 3097 
Q 1497 3097 1228 2736 
Q 959 2375 959 1747 
Q 959 1119 1226 758 
Q 1494 397 1959 397 
Q 2419 397 2687 759 
Q 2956 1122 2956 1747 
Q 2956 2369 2687 2733 
Q 2419 3097 1959 3097 
z
M 1959 3584 
Q 2709 3584 3137 3096 
Q 3566 2609 3566 1747 
Q 3566 888 3137 398 
Q 2709 -91 1959 -91 
Q 1206 -91 779 398 
Q 353 888 353 1747 
Q 353 2609 779 3096 
Q 1206 3584 1959 3584 
z
" transform="scale(0.015625)"/>
      <path id="DejaVuSans-64" d="M 2906 2969 
L 2906 4863 
L 3481 4863 
L 3481 0 
L 2906 0 
L 2906 525 
Q 2725 213 2448 61 
Q 2172 -91 1784 -91 
Q 1150 -91 751 415 
Q 353 922 353 1747 
Q 353 2572 751 3078 
Q 1150 3584 1784 3584 
Q 2172 3584 2448 3432 
Q 2725 3281 2906 2969 
z
M 947 1747 
Q 947 1113 1208 752 
Q 1469 391 1925 391 
Q 2381 391 2643 752 
Q 2906 1113 2906 1747 
Q 2906 2381 2643 2742 
Q 2381 3103 1925 3103 
Q 1469 3103 1208 2742 
Q 947 2381 947 1747 
z
" transform="scale(0.015625)"/>
      <path id="DejaVuSans-61" d="M 2194 1759 
Q 1497 1759 1228 1600 
Q 959 1441 959 1056 
Q 959 750 1161 570 
Q 1363 391 1709 391 
Q 2188 391 2477 730 
Q 2766 1069 2766 1631 
L 2766 1759 
L 2194 1759 
z
M 3341 1997 
L 3341 0 
L 2766 0 
L 2766 531 
Q 2569 213 2275 61 
Q 1981 -91 1556 -91 
Q 1019 -91 701 211 
Q 384 513 384 1019 
Q 384 1609 779 1909 
Q 1175 2209 1959 2209 
L 2766 2209 
L 2766 2266 
Q 2766 2663 2505 2880 
Q 2244 3097 1772 3097 
Q 1472 3097 1187 3025 
Q 903 2953 641 2809 
L 641 3341 
Q 956 3463 1253 3523 
Q 1550 3584 1831 3584 
Q 2591 3584 2966 3190 
Q 3341 2797 3341 1997 
z
" transform="scale(0.015625)"/>
      <path id="DejaVuSans-6d" d="M 3328 2828 
Q 3544 3216 3844 3400 
Q 4144 3584 4550 3584 
Q 5097 3584 5394 3201 
Q 5691 2819 5691 2113 
L 5691 0 
L 5113 0 
L 5113 2094 
Q 5113 2597 4934 2840 
Q 4756 3084 4391 3084 
Q 3944 3084 3684 2787 
Q 3425 2491 3425 1978 
L 3425 0 
L 2847 0 
L 2847 2094 
Q 2847 2600 2669 2842 
Q 2491 3084 2119 3084 
Q 1678 3084 1418 2786 
Q 1159 2488 1159 1978 
L 1159 0 
L 581 0 
L 581 3500 
L 1159 3500 
L 1159 2956 
Q 1356 3278 1631 3431 
Q 1906 3584 2284 3584 
Q 2666 3584 2933 3390 
Q 3200 3197 3328 2828 
z
" transform="scale(0.015625)"/>
      <path id="DejaVuSans-67" d="M 2906 1791 
Q 2906 2416 2648 2759 
Q 2391 3103 1925 3103 
Q 1463 3103 1205 2759 
Q 947 2416 947 1791 
Q 947 1169 1205 825 
Q 1463 481 1925 481 
Q 2391 481 2648 825 
Q 2906 1169 2906 1791 
z
M 3481 434 
Q 3481 -459 3084 -895 
Q 2688 -1331 1869 -1331 
Q 1566 -1331 1297 -1286 
Q 1028 -1241 775 -1147 
L 775 -588 
Q 1028 -725 1275 -790 
Q 1522 -856 1778 -856 
Q 2344 -856 2625 -561 
Q 2906 -266 2906 331 
L 2906 616 
Q 2728 306 2450 153 
Q 2172 0 1784 0 
Q 1141 0 747 490 
Q 353 981 353 1791 
Q 353 2603 747 3093 
Q 1141 3584 1784 3584 
Q 2172 3584 2450 3431 
Q 2728 3278 2906 2969 
L 2906 3500 
L 3481 3500 
L 3481 434 
z
" transform="scale(0.015625)"/>
      <path id="DejaVuSans-65" d="M 3597 1894 
L 3597 1613 
L 953 1613 
Q 991 1019 1311 708 
Q 1631 397 2203 397 
Q 2534 397 2845 478 
Q 3156 559 3463 722 
L 3463 178 
Q 3153 47 2828 -22 
Q 2503 -91 2169 -91 
Q 1331 -91 842 396 
Q 353 884 353 1716 
Q 353 2575 817 3079 
Q 1281 3584 2069 3584 
Q 2775 3584 3186 3129 
Q 3597 2675 3597 1894 
z
M 3022 2063 
Q 3016 2534 2758 2815 
Q 2500 3097 2075 3097 
Q 1594 3097 1305 2825 
Q 1016 2553 972 2059 
L 3022 2063 
z
" transform="scale(0.015625)"/>
     </defs>
     <use xlink:href="#DejaVuSans-30"/>
     <use xlink:href="#DejaVuSans-20" x="63.623047"/>
     <use xlink:href="#DejaVuSans-4e" x="95.410156"/>
     <use xlink:href="#DejaVuSans-6f" x="170.214844"/>
     <use xlink:href="#DejaVuSans-20" x="231.396484"/>
     <use xlink:href="#DejaVuSans-64" x="263.183594"/>
     <use xlink:href="#DejaVuSans-61" x="326.660156"/>
     <use xlink:href="#DejaVuSans-6d" x="387.939453"/>
     <use xlink:href="#DejaVuSans-61" x="485.351562"/>
     <use xlink:href="#DejaVuSans-67" x="546.630859"/>
     <use xlink:href="#DejaVuSans-65" x="610.107422"/>
    </g>
   </g>
   <g id="text_2">
    <!-- 80% -->
    <g transform="translate(151.499517 229.985497) scale(0.1 -0.1)">
     <defs>
      <path id="DejaVuSans-38" d="M 2034 2216 
Q 1584 2216 1326 1975 
Q 1069 1734 1069 1313 
Q 1069 891 1326 650 
Q 1584 409 2034 409 
Q 2484 409 2743 651 
Q 3003 894 3003 1313 
Q 3003 1734 2745 1975 
Q 2488 2216 2034 2216 
z
M 1403 2484 
Q 997 2584 770 2862 
Q 544 3141 544 3541 
Q 544 4100 942 4425 
Q 1341 4750 2034 4750 
Q 2731 4750 3128 4425 
Q 3525 4100 3525 3541 
Q 3525 3141 3298 2862 
Q 3072 2584 2669 2484 
Q 3125 2378 3379 2068 
Q 3634 1759 3634 1313 
Q 3634 634 3220 271 
Q 2806 -91 2034 -91 
Q 1263 -91 848 271 
Q 434 634 434 1313 
Q 434 1759 690 2068 
Q 947 2378 1403 2484 
z
M 1172 3481 
Q 1172 3119 1398 2916 
Q 1625 2713 2034 2713 
Q 2441 2713 2670 2916 
Q 2900 3119 2900 3481 
Q 2900 3844 2670 4047 
Q 2441 4250 2034 4250 
Q 1625 4250 1398 4047 
Q 1172 3844 1172 3481 
z
" transform="scale(0.015625)"/>
      <path id="DejaVuSans-25" d="M 4653 2053 
Q 4381 2053 4226 1822 
Q 4072 1591 4072 1178 
Q 4072 772 4226 539 
Q 4381 306 4653 306 
Q 4919 306 5073 539 
Q 5228 772 5228 1178 
Q 5228 1588 5073 1820 
Q 4919 2053 4653 2053 
z
M 4653 2450 
Q 5147 2450 5437 2106 
Q 5728 1763 5728 1178 
Q 5728 594 5436 251 
Q 5144 -91 4653 -91 
Q 4153 -91 3862 251 
Q 3572 594 3572 1178 
Q 3572 1766 3864 2108 
Q 4156 2450 4653 2450 
z
M 1428 4353 
Q 1159 4353 1004 4120 
Q 850 3888 850 3481 
Q 850 3069 1003 2837 
Q 1156 2606 1428 2606 
Q 1700 2606 1854 2837 
Q 2009 3069 2009 3481 
Q 2009 3884 1853 4118 
Q 1697 4353 1428 4353 
z
M 4250 4750 
L 4750 4750 
L 1831 -91 
L 1331 -91 
L 4250 4750 
z
M 1428 4750 
Q 1922 4750 2215 4408 
Q 2509 4066 2509 3481 
Q 2509 2891 2217 2550 
Q 1925 2209 1428 2209 
Q 931 2209 642 2551 
Q 353 2894 353 3481 
Q 353 4063 643 4406 
Q 934 4750 1428 4750 
z
" transform="scale(0.015625)"/>
     </defs>
     <use xlink:href="#DejaVuSans-38"/>
     <use xlink:href="#DejaVuSans-30" x="63.623047"/>
     <use xlink:href="#DejaVuSans-25" x="127.246094"/>
    </g>
   </g>
   <g id="text_3">
    <!-- 1 Light damage -->
    <g transform="translate(316.366395 82.741612) rotate(-50.590174) scale(0.1 -0.1)">
     <defs>
      <path id="DejaVuSans-31" d="M 794 531 
L 1825 531 
L 1825 4091 
L 703 3866 
L 703 4441 
L 1819 4666 
L 2450 4666 
L 2450 531 
L 3481 531 
L 3481 0 
L 794 0 
L 794 531 
z
" transform="scale(0.015625)"/>
      <path id="DejaVuSans-4c" d="M 628 4666 
L 1259 4666 
L 1259 531 
L 3531 531 
L 3531 0 
L 628 0 
L 628 4666 
z
" transform="scale(0.015625)"/>
      <path id="DejaVuSans-69" d="M 603 3500 
L 1178 3500 
L 1178 0 
L 603 0 
L 603 3500 
z
M 603 4863 
L 1178 4863 
L 1178 4134 
L 603 4134 
L 603 4863 
z
" transform="scale(0.015625)"/>
      <path id="DejaVuSans-68" d="M 3513 2113 
L 3513 0 
L 2938 0 
L 2938 2094 
Q 2938 2591 2744 2837 
Q 2550 3084 2163 3084 
Q 1697 3084 1428 2787 
Q 1159 2491 1159 1978 
L 1159 0 
L 581 0 
L 581 4863 
L 1159 4863 
L 1159 2956 
Q 1366 3272 1645 3428 
Q 1925 3584 2291 3584 
Q 2894 3584 3203 3211 
Q 3513 2838 3513 2113 
z
" transform="scale(0.015625)"/>
      <path id="DejaVuSans-74" d="M 1172 4494 
L 1172 3500 
L 2356 3500 
L 2356 3053 
L 1172 3053 
L 1172 1153 
Q 1172 725 1289 603 
Q 1406 481 1766 481 
L 2356 481 
L 2356 0 
L 1766 0 
Q 1100 0 847 248 
Q 594 497 594 1153 
L 594 3053 
L 172 3053 
L 172 3500 
L 594 3500 
L 594 4494 
L 1172 4494 
z
" transform="scale(0.015625)"/>
     </defs>
     <use xlink:href="#DejaVuSans-31"/>
     <use xlink:href="#DejaVuSans-20" x="63.623047"/>
     <use xlink:href="#DejaVuSans-4c" x="95.410156"/>
     <use xlink:href="#DejaVuSans-69" x="151.123047"/>
     <use xlink:href="#DejaVuSans-67" x="178.90625"/>
     <use xlink:href="#DejaVuSans-68" x="242.382812"/>
     <use xlink:href="#DejaVuSans-74" x="305.761719"/>
     <use xlink:href="#DejaVuSans-20" x="344.970703"/>
     <use xlink:href="#DejaVuSans-64" x="376.757812"/>
     <use xlink:href="#DejaVuSans-61" x="440.234375"/>
     <use xlink:href="#DejaVuSans-6d" x="501.513672"/>
     <use xlink:href="#DejaVuSans-61" x="598.925781"/>
     <use xlink:href="#DejaVuSans-67" x="660.205078"/>
     <use xlink:href="#DejaVuSans-65" x="723.681641"/>
    </g>
   </g>
   <g id="text_4">
    <!-- 11% -->
    <g transform="translate(282.487906 107.381775) scale(0.1 -0.1)">
     <use xlink:href="#DejaVuSans-31"/>
     <use xlink:href="#DejaVuSans-31" x="63.623047"/>
     <use xlink:href="#DejaVuSans-25" x="127.246094"/>
    </g>
   </g>
   <g id="text_5">
    <!-- 2 Medium damage -->
    <g transform="translate(348.266808 130.848897) rotate(-20.882099) scale(0.1 -0.1)">
     <defs>
      <path id="DejaVuSans-32" d="M 1228 531 
L 3431 531 
L 3431 0 
L 469 0 
L 469 531 
Q 828 903 1448 1529 
Q 2069 2156 2228 2338 
Q 2531 2678 2651 2914 
Q 2772 3150 2772 3378 
Q 2772 3750 2511 3984 
Q 2250 4219 1831 4219 
Q 1534 4219 1204 4116 
Q 875 4013 500 3803 
L 500 4441 
Q 881 4594 1212 4672 
Q 1544 4750 1819 4750 
Q 2544 4750 2975 4387 
Q 3406 4025 3406 3419 
Q 3406 3131 3298 2873 
Q 3191 2616 2906 2266 
Q 2828 2175 2409 1742 
Q 1991 1309 1228 531 
z
" transform="scale(0.015625)"/>
      <path id="DejaVuSans-4d" d="M 628 4666 
L 1569 4666 
L 2759 1491 
L 3956 4666 
L 4897 4666 
L 4897 0 
L 4281 0 
L 4281 4097 
L 3078 897 
L 2444 897 
L 1241 4097 
L 1241 0 
L 628 0 
L 628 4666 
z
" transform="scale(0.015625)"/>
      <path id="DejaVuSans-75" d="M 544 1381 
L 544 3500 
L 1119 3500 
L 1119 1403 
Q 1119 906 1312 657 
Q 1506 409 1894 409 
Q 2359 409 2629 706 
Q 2900 1003 2900 1516 
L 2900 3500 
L 3475 3500 
L 3475 0 
L 2900 0 
L 2900 538 
Q 2691 219 2414 64 
Q 2138 -91 1772 -91 
Q 1169 -91 856 284 
Q 544 659 544 1381 
z
M 1991 3584 
L 1991 3584 
z
" transform="scale(0.015625)"/>
     </defs>
     <use xlink:href="#DejaVuSans-32"/>
     <use xlink:href="#DejaVuSans-20" x="63.623047"/>
     <use xlink:href="#DejaVuSans-4d" x="95.410156"/>
     <use xlink:href="#DejaVuSans-65" x="181.689453"/>
     <use xlink:href="#DejaVuSans-64" x="243.212891"/>
     <use xlink:href="#DejaVuSans-69" x="306.689453"/>
     <use xlink:href="#DejaVuSans-75" x="334.472656"/>
     <use xlink:href="#DejaVuSans-6d" x="397.851562"/>
     <use xlink:href="#DejaVuSans-20" x="495.263672"/>
     <use xlink:href="#DejaVuSans-64" x="527.050781"/>
     <use xlink:href="#DejaVuSans-61" x="590.527344"/>
     <use xlink:href="#DejaVuSans-6d" x="651.806641"/>
     <use xlink:href="#DejaVuSans-61" x="749.21875"/>
     <use xlink:href="#DejaVuSans-67" x="810.498047"/>
     <use xlink:href="#DejaVuSans-65" x="873.974609"/>
    </g>
   </g>
   <g id="text_6">
    <!-- 5% -->
    <g transform="translate(312.763076 145.036816) scale(0.1 -0.1)">
     <defs>
      <path id="DejaVuSans-35" d="M 691 4666 
L 3169 4666 
L 3169 4134 
L 1269 4134 
L 1269 2991 
Q 1406 3038 1543 3061 
Q 1681 3084 1819 3084 
Q 2600 3084 3056 2656 
Q 3513 2228 3513 1497 
Q 3513 744 3044 326 
Q 2575 -91 1722 -91 
Q 1428 -91 1123 -41 
Q 819 9 494 109 
L 494 744 
Q 775 591 1075 516 
Q 1375 441 1709 441 
Q 2250 441 2565 725 
Q 2881 1009 2881 1497 
Q 2881 1984 2565 2268 
Q 2250 2553 1709 2553 
Q 1456 2553 1204 2497 
Q 953 2441 691 2322 
L 691 4666 
z
" transform="scale(0.015625)"/>
     </defs>
     <use xlink:href="#DejaVuSans-35"/>
     <use xlink:href="#DejaVuSans-25" x="63.623047"/>
    </g>
   </g>
   <g id="text_7">
    <!-- 3 High damage -->
    <g transform="translate(353.317526 158.457953) rotate(-6.869714) scale(0.1 -0.1)">
     <defs>
      <path id="DejaVuSans-33" d="M 2597 2516 
Q 3050 2419 3304 2112 
Q 3559 1806 3559 1356 
Q 3559 666 3084 287 
Q 2609 -91 1734 -91 
Q 1441 -91 1130 -33 
Q 819 25 488 141 
L 488 750 
Q 750 597 1062 519 
Q 1375 441 1716 441 
Q 2309 441 2620 675 
Q 2931 909 2931 1356 
Q 2931 1769 2642 2001 
Q 2353 2234 1838 2234 
L 1294 2234 
L 1294 2753 
L 1863 2753 
Q 2328 2753 2575 2939 
Q 2822 3125 2822 3475 
Q 2822 3834 2567 4026 
Q 2313 4219 1838 4219 
Q 1578 4219 1281 4162 
Q 984 4106 628 3988 
L 628 4550 
Q 988 4650 1302 4700 
Q 1616 4750 1894 4750 
Q 2613 4750 3031 4423 
Q 3450 4097 3450 3541 
Q 3450 3153 3228 2886 
Q 3006 2619 2597 2516 
z
" transform="scale(0.015625)"/>
      <path id="DejaVuSans-48" d="M 628 4666 
L 1259 4666 
L 1259 2753 
L 3553 2753 
L 3553 4666 
L 4184 4666 
L 4184 0 
L 3553 0 
L 3553 2222 
L 1259 2222 
L 1259 0 
L 628 0 
L 628 4666 
z
" transform="scale(0.015625)"/>
     </defs>
     <use xlink:href="#DejaVuSans-33"/>
     <use xlink:href="#DejaVuSans-20" x="63.623047"/>
     <use xlink:href="#DejaVuSans-48" x="95.410156"/>
     <use xlink:href="#DejaVuSans-69" x="170.605469"/>
     <use xlink:href="#DejaVuSans-67" x="198.388672"/>
     <use xlink:href="#DejaVuSans-68" x="261.865234"/>
     <use xlink:href="#DejaVuSans-20" x="325.244141"/>
     <use xlink:href="#DejaVuSans-64" x="357.03125"/>
     <use xlink:href="#DejaVuSans-61" x="420.507812"/>
     <use xlink:href="#DejaVuSans-6d" x="481.787109"/>
     <use xlink:href="#DejaVuSans-61" x="579.199219"/>
     <use xlink:href="#DejaVuSans-67" x="640.478516"/>
     <use xlink:href="#DejaVuSans-65" x="703.955078"/>
    </g>
   </g>
   <g id="text_8">
    <!-- 3% -->
    <g transform="translate(318.05648 166.465106) scale(0.1 -0.1)">
     <use xlink:href="#DejaVuSans-33"/>
     <use xlink:href="#DejaVuSans-25" x="63.623047"/>
    </g>
   </g>
   <g id="text_9">
    <!-- 4 Moribund or dead -->
    <g transform="translate(353.359699 170.496252) rotate(-0.955396) scale(0.1 -0.1)">
     <defs>
      <path id="DejaVuSans-34" d="M 2419 4116 
L 825 1625 
L 2419 1625 
L 2419 4116 
z
M 2253 4666 
L 3047 4666 
L 3047 1625 
L 3713 1625 
L 3713 1100 
L 3047 1100 
L 3047 0 
L 2419 0 
L 2419 1100 
L 313 1100 
L 313 1709 
L 2253 4666 
z
" transform="scale(0.015625)"/>
      <path id="DejaVuSans-72" d="M 2631 2963 
Q 2534 3019 2420 3045 
Q 2306 3072 2169 3072 
Q 1681 3072 1420 2755 
Q 1159 2438 1159 1844 
L 1159 0 
L 581 0 
L 581 3500 
L 1159 3500 
L 1159 2956 
Q 1341 3275 1631 3429 
Q 1922 3584 2338 3584 
Q 2397 3584 2469 3576 
Q 2541 3569 2628 3553 
L 2631 2963 
z
" transform="scale(0.015625)"/>
      <path id="DejaVuSans-62" d="M 3116 1747 
Q 3116 2381 2855 2742 
Q 2594 3103 2138 3103 
Q 1681 3103 1420 2742 
Q 1159 2381 1159 1747 
Q 1159 1113 1420 752 
Q 1681 391 2138 391 
Q 2594 391 2855 752 
Q 3116 1113 3116 1747 
z
M 1159 2969 
Q 1341 3281 1617 3432 
Q 1894 3584 2278 3584 
Q 2916 3584 3314 3078 
Q 3713 2572 3713 1747 
Q 3713 922 3314 415 
Q 2916 -91 2278 -91 
Q 1894 -91 1617 61 
Q 1341 213 1159 525 
L 1159 0 
L 581 0 
L 581 4863 
L 1159 4863 
L 1159 2969 
z
" transform="scale(0.015625)"/>
      <path id="DejaVuSans-6e" d="M 3513 2113 
L 3513 0 
L 2938 0 
L 2938 2094 
Q 2938 2591 2744 2837 
Q 2550 3084 2163 3084 
Q 1697 3084 1428 2787 
Q 1159 2491 1159 1978 
L 1159 0 
L 581 0 
L 581 3500 
L 1159 3500 
L 1159 2956 
Q 1366 3272 1645 3428 
Q 1925 3584 2291 3584 
Q 2894 3584 3203 3211 
Q 3513 2838 3513 2113 
z
" transform="scale(0.015625)"/>
     </defs>
     <use xlink:href="#DejaVuSans-34"/>
     <use xlink:href="#DejaVuSans-20" x="63.623047"/>
     <use xlink:href="#DejaVuSans-4d" x="95.410156"/>
     <use xlink:href="#DejaVuSans-6f" x="181.689453"/>
     <use xlink:href="#DejaVuSans-72" x="242.871094"/>
     <use xlink:href="#DejaVuSans-69" x="283.984375"/>
     <use xlink:href="#DejaVuSans-62" x="311.767578"/>
     <use xlink:href="#DejaVuSans-75" x="375.244141"/>
     <use xlink:href="#DejaVuSans-6e" x="438.623047"/>
     <use xlink:href="#DejaVuSans-64" x="502.001953"/>
     <use xlink:href="#DejaVuSans-20" x="565.478516"/>
     <use xlink:href="#DejaVuSans-6f" x="597.265625"/>
     <use xlink:href="#DejaVuSans-72" x="658.447266"/>
     <use xlink:href="#DejaVuSans-20" x="699.560547"/>
     <use xlink:href="#DejaVuSans-64" x="731.347656"/>
     <use xlink:href="#DejaVuSans-65" x="794.824219"/>
     <use xlink:href="#DejaVuSans-61" x="856.347656"/>
     <use xlink:href="#DejaVuSans-64" x="917.626953"/>
    </g>
   </g>
   <g id="text_10">
    <!-- 1% -->
    <g transform="translate(318.69347 175.778741) scale(0.1 -0.1)">
     <use xlink:href="#DejaVuSans-31"/>
     <use xlink:href="#DejaVuSans-25" x="63.623047"/>
    </g>
   </g>
   <g id="text_11">
    <!-- 20% -->
    <g transform="translate(205.042813 150.900375) scale(0.28 -0.28)">
     <use xlink:href="#DejaVuSans-32"/>
     <use xlink:href="#DejaVuSans-30" x="63.623047"/>
     <use xlink:href="#DejaVuSans-25" x="127.246094"/>
    </g>
    <!-- damaged -->
    <g transform="translate(170.086563 182.25425) scale(0.28 -0.28)">
     <use xlink:href="#DejaVuSans-64"/>
     <use xlink:href="#DejaVuSans-61" x="63.476562"/>
     <use xlink:href="#DejaVuSans-6d" x="124.755859"/>
     <use xlink:href="#DejaVuSans-61" x="222.167969"/>
     <use xlink:href="#DejaVuSans-67" x="283.447266"/>
     <use xlink:href="#DejaVuSans-65" x="346.923828"/>
     <use xlink:href="#DejaVuSans-64" x="408.447266"/>
    </g>
    <!-- trees -->
    <g transform="translate(200.709375 213.608125) scale(0.28 -0.28)">
     <defs>
      <path id="DejaVuSans-73" d="M 2834 3397 
L 2834 2853 
Q 2591 2978 2328 3040 
Q 2066 3103 1784 3103 
Q 1356 3103 1142 2972 
Q 928 2841 928 2578 
Q 928 2378 1081 2264 
Q 1234 2150 1697 2047 
L 1894 2003 
Q 2506 1872 2764 1633 
Q 3022 1394 3022 966 
Q 3022 478 2636 193 
Q 2250 -91 1575 -91 
Q 1294 -91 989 -36 
Q 684 19 347 128 
L 347 722 
Q 666 556 975 473 
Q 1284 391 1588 391 
Q 1994 391 2212 530 
Q 2431 669 2431 922 
Q 2431 1156 2273 1281 
Q 2116 1406 1581 1522 
L 1381 1569 
Q 847 1681 609 1914 
Q 372 2147 372 2553 
Q 372 3047 722 3315 
Q 1072 3584 1716 3584 
Q 2034 3584 2315 3537 
Q 2597 3491 2834 3397 
z
" transform="scale(0.015625)"/>
     </defs>
     <use xlink:href="#DejaVuSans-74"/>
     <use xlink:href="#DejaVuSans-72" x="39.208984"/>
     <use xlink:href="#DejaVuSans-65" x="78.072266"/>
     <use xlink:href="#DejaVuSans-65" x="139.595703"/>
     <use xlink:href="#DejaVuSans-73" x="201.119141"/>
    </g>
   </g>
  </g>
 </g>
</svg>
